<svg xmlns="http://www.w3.org/2000/svg" xmlns:xlink="http://www.w3.org/1999/xlink">
  <symbol viewBox="0 0 22.199 22.199" id="icon-close">  
    <polygon points="22.199,2.804 19.396,0 11.1,8.297 2.804,0 0,2.803 8.297,11.1 0,19.396 2.803,22.199 11.1,13.902 19.396,22.199 22.199,19.396 13.903,11.1 "/>    
  </symbol>
  
  <symbol viewBox="0 0 22.928 21.982" id="icon-menu">
    <g>
      <rect width="22.928" height="3.964"/>
      <rect y="9.009" width="22.928" height="3.964"/>
      <rect y="18.018" width="22.928" height="3.964"/>
    </g>
  </symbol>  
  
  <symbol viewBox="0 0 18 18" id="icon-phone">
    <g id="Page-1">
      <g id="Icons-Communication" transform="translate(-85.000000, -126.000000)">
            <g id="phone" transform="translate(85.000000, 126.000000)">
              <path id="Shape" fill="#010101" d="M3.6,7.8C5,10.6,7.4,12.9,10.2,14.4l2.2-2.2c0.3-0.3,0.699-0.4,1-0.2c1.1,0.4,2.3,0.6,3.6,0.6 c0.6,0,1,0.4,1,1V17c0,0.6-0.4,1-1,1C7.6,18,0,10.4,0,1c0-0.6,0.4-1,1-1h3.5c0.6,0,1,0.4,1,1c0,1.2,0.2,2.4,0.6,3.6 c0.1,0.3,0,0.7-0.2,1L3.6,7.8L3.6,7.8z"/>
            </g>
          </g>
        </g>
  </symbol>
  
  <symbol viewBox="0 0 16 16" id="icon-mail">
    <path d="M8,10c-0.266,0-0.5-0.094-1-0.336L0,6v7c0,0.55,0.45,1,1,1h14c0.55,0,1-0.45,1-1V6L9,9.664C8.5,9.906,8.266,10,8,10z M15,2 H1C0.45,2,0,2.45,0,3v0.758l8,4.205l8-4.205V3C16,2.45,15.55,2,15,2z"/>      
  </symbol>
  
  <symbol viewBox="0 0 22 20" id="icon-like">
    <path d="M12.383 3.646l-.637 2.929L11.219 9H19.9v2l.001.058L17 18H8V8.029l.014-.015 4.369-4.368M2 10v8-8M13.2 0L6.6 6.6c-.4.3-.6.8-.6 1.4v10c0 1.1.9 2 2 2h9c.8 0 1.5-.5 1.8-1.2l3-7.1c.1-.2.1-.5.1-.7V9h.1c0-1.1-.9-2-2-2h-6.3l1-4.6v-.3c0-.4-.2-.8-.4-1.1l-1.1-1zM4 8H0v12h4V8zm18 1v.044V9z"/>   
  </symbol>  
  
  <symbol viewBox="0 0 27 27" id="icon-map-marker">
    <circle fill="#FFFFFF" cx="13.5" cy="13.5" r="13.5"/>
    <circle fill="#81B3D3" cx="13.5" cy="13.5" r="8.361"/>
  </symbol>
  
  <symbol viewBox="0 0 17.5 14.663" id="icon-twitter">
    <path d="M10.95.144c1.685-.496 2.984.27 3.577 1.179.673-.231 1.331-.481 2.011-.708a2.345 2.345 0 0 1-.857 1.768c.685.17 1.304-.491 1.304-.491-.169 1-1.006 1.788-1.563 2.024-.231 6.75-3.175 11.217-10.077 11.082h-.446c-.41 0-4.164-.46-4.898-1.887 2.271.196 3.893-.422 4.693-1.177-.96-.3-2.679-.477-2.979-2.95.349.106.564.228 1.19.119C1.705 8.247.374 7.53.448 5.33c.285.328 1.067.536 1.34.472C1.085 5.561-.182 2.442.894.85c1.818 1.854 3.735 3.606 7.152 3.773C8.254 2.33 9.183.793 10.95.144z"/>
  </symbol>
  
  <symbol viewBox="0 0 8.672 18.944" id="icon-facebook">
    <path d="M6.275,3.356c0.799,0,1.599,0,2.398,0c0-1.119,0-2.237,0-3.356c-0.959,0-1.92,0-2.878,0C2.656,0.181,1.54,2.387,1.948,6.114 H0v3.518h1.959c0,3.104,0,6.208,0,9.312c1.279,0,2.559,0,3.837,0c0-3.104,0-6.208,0-9.312h2.857V6.114H5.787 C5.765,5.069,5.75,3.709,6.275,3.356z"/>
  </symbol>
      
  <symbol viewBox="0 0 19.979 14.015" id="icon-youtube">
    <path d="M17.145,0H2.835C1.275,0,0,1.275,0,2.835v8.345c0,1.56,1.275,2.835,2.835,2.835h14.31c1.56,0,2.835-1.275,2.835-2.835V2.835 C19.979,1.275,18.704,0,17.145,0z M7.036,10.392V3.623l6.769,3.384L7.036,10.392z"/>
  </symbol>
  
</svg>
